<svg width="144" height="144" xmlns="http://www.w3.org/2000/svg" fill="#000000">

 <g>
  <title>icon</title>
  <g stroke="null" id="svg_3">
   <path stroke="null" id="svg_1" fill="none" d="m0,0l143,0l0,143l-143,0l0,-143z"/>
   <path stroke="null" id="svg_2" d="m76.68375,89.79209l-15.13417,-14.95542l0.17875,-0.17875c10.3675,-11.55917 17.75583,-24.84625 22.10542,-38.90792l17.45792,0l0,-11.91667l-41.70833,0l0,-11.91667l-11.91667,0l0,11.91667l-41.70833,0l0,11.85708l66.55459,0c-3.99208,11.49958 -10.30792,22.40333 -18.88792,31.93667c-5.54125,-6.13708 -10.12917,-12.87 -13.76375,-19.96042l-11.91667,0c4.34958,9.71208 10.30792,18.88792 17.75583,27.17l-30.32792,29.91083l8.46083,8.46083l29.79167,-29.79167l18.53042,18.53042l4.52833,-12.155zm33.54542,-30.20875l-11.91667,0l-26.8125,71.5l11.91667,0l6.67333,-17.875l28.30208,0l6.73292,17.875l11.91667,0l-26.8125,-71.5zm-15.61083,41.70833l9.6525,-25.79958l9.6525,25.79958l-19.305,0z"/>
  </g>
 </g>
</svg>