<svg width="512" height="512" xmlns="http://www.w3.org/2000/svg">

 <g>
  <title></title>
  <path fill="#cddc39" id="svg_2" d="m274.02374,320.86543l-54.08084,-53.44209l0.63875,-0.63875c37.0475,-41.30584 63.44915,-88.78625 78.99209,-139.03459l62.38459,0l0,-42.58334l-149.04165,0l0,-42.58334l-42.58334,0l0,42.58334l-149.04165,0l0,42.3704l237.82793,0c-14.2654,41.0929 -36.83459,80.05665 -67.49459,114.12334c-19.80125,-21.9304 -36.19584,-45.99 -49.18375,-71.32709l-42.58334,0c15.5429,34.7054 36.83459,67.49459 63.44915,97.09l-108.37459,106.88415l30.23415,30.23415l106.45834,-106.45834l66.21709,66.21709l16.18165,-43.435l0,0.00007l0.00001,0zm119.87209,-107.94875l-42.58334,0l-95.8125,255.49999l42.58334,0l23.84665,-63.875l101.1354,0l24.05959,63.875l42.58334,0l-95.8125,-255.49999l0.00002,0zm-55.78415,149.04165l34.4925,-92.1929l34.4925,92.1929l-68.985,0z"/>
 </g>
</svg>